<svg width="47" height="47" viewBox="0 0 47 47" fill="none" xmlns="http://www.w3.org/2000/svg">
<g filter="url(#filter0_b_43_281)">
<rect x="0.858643" y="0.318268" width="46" height="46" rx="23" fill="#EDDAFF" fill-opacity="0.3"/>
<path d="M32.317 12.4433C32.9579 12.4433 33.5726 12.6979 34.0258 13.1511C34.479 13.6043 34.7336 14.219 34.7336 14.8599V31.7766C34.7336 32.4175 34.479 33.0322 34.0258 33.4854C33.5726 33.9387 32.9579 34.1933 32.317 34.1933H15.4003C14.7594 34.1933 14.1447 33.9387 13.6915 33.4854C13.2383 33.0322 12.9836 32.4175 12.9836 31.7766V14.8599C12.9836 14.219 13.2383 13.6043 13.6915 13.1511C14.1447 12.6979 14.7594 12.4433 15.4003 12.4433H32.317ZM31.7128 31.1724V24.7683C31.7128 23.7235 31.2978 22.7216 30.5591 21.9829C29.8203 21.2441 28.8184 20.8291 27.7736 20.8291C26.7466 20.8291 25.5503 21.4574 24.9703 22.3999V21.0587H21.5991V31.1724H24.9703V25.2154C24.9703 24.2849 25.7195 23.5237 26.6499 23.5237C27.0986 23.5237 27.5288 23.7019 27.8461 24.0192C28.1633 24.3364 28.3416 24.7667 28.3416 25.2154V31.1724H31.7128ZM17.672 19.1616C18.2104 19.1616 18.7267 18.9477 19.1074 18.567C19.4881 18.1863 19.702 17.67 19.702 17.1316C19.702 16.0079 18.7957 15.0895 17.672 15.0895C17.1304 15.0895 16.611 15.3047 16.228 15.6876C15.845 16.0706 15.6299 16.59 15.6299 17.1316C15.6299 18.2554 16.5482 19.1616 17.672 19.1616ZM19.3516 31.1724V21.0587H16.0045V31.1724H19.3516Z" fill="white"/>
</g>
<defs>
<filter id="filter0_b_43_281" x="-10.0414" y="-10.5817" width="67.8" height="67.8" filterUnits="userSpaceOnUse" color-interpolation-filters="sRGB">
<feFlood flood-opacity="0" result="BackgroundImageFix"/>
<feGaussianBlur in="BackgroundImageFix" stdDeviation="5.45"/>
<feComposite in2="SourceAlpha" operator="in" result="effect1_backgroundBlur_43_281"/>
<feBlend mode="normal" in="SourceGraphic" in2="effect1_backgroundBlur_43_281" result="shape"/>
</filter>
</defs>
</svg>
