<svg width="47" height="47" viewBox="0 0 47 47" fill="none" xmlns="http://www.w3.org/2000/svg">
<g clip-path="url(#clip0_47_24)">
<circle cx="23.4999" cy="23.5208" r="22.7595" fill="white"/>
<path fill-rule="evenodd" clip-rule="evenodd" d="M17.0541 28.8029C16.8106 29.1242 16.8386 29.5875 17.1358 29.8847C17.4601 30.209 17.982 30.2128 18.3015 29.8933L28.4709 19.7239L28.5105 27.1106L28.52 27.2325C28.581 27.6305 28.9252 27.9387 29.3391 27.9426C29.7943 27.9469 30.1614 27.5813 30.159 27.1261L30.1094 17.7592C30.1102 17.7045 30.1055 17.6497 30.0955 17.5956C30.0239 17.2086 29.6836 16.9127 29.2772 16.9106L19.8945 16.8617L19.7728 16.87C19.3759 16.9268 19.0742 17.2679 19.0781 17.6817C19.0825 18.1369 19.455 18.5079 19.9102 18.5103L27.2976 18.5487L17.1272 28.7191L17.0541 28.8029Z" fill="#625478"/>
</g>
<defs>
<clipPath id="clip0_47_24">
<rect width="45.5189" height="45.5189" fill="white" transform="translate(0.740479 0.761383)"/>
</clipPath>
</defs>
</svg>
