<svg width="261" height="261" viewBox="0 0 261 261" fill="none" xmlns="http://www.w3.org/2000/svg">
<path d="M126.59 257.189H135.02C202.874 257.189 257.88 202.161 257.88 134.282V125.848C257.88 57.9685 202.874 2.94106 135.02 2.94106H126.59C58.7367 2.94106 3.73038 57.9685 3.73038 125.848V134.282C3.73038 202.161 58.7367 257.189 126.59 257.189Z" fill="url(#paint0_linear_79_1427)"/>
<path d="M135.012 3.16116C202.888 3.16116 257.919 58.1923 257.919 126.068V134.512C257.919 202.388 202.888 257.419 135.012 257.419H126.569C58.6925 257.419 3.66131 202.388 3.66131 134.512V126.068C3.66131 58.1923 58.6925 3.16116 126.569 3.16116H135.012ZM135.012 0.160004H126.569C92.9356 0.160004 61.3235 13.255 37.5343 37.0342C13.7552 60.8133 0.660156 92.4355 0.660156 126.068V134.512C0.660156 168.145 13.7552 199.757 37.5343 223.546C61.3135 247.325 92.9356 260.42 126.569 260.42H135.012C168.645 260.42 200.257 247.325 224.046 223.546C247.825 199.767 260.92 168.145 260.92 134.512V126.068C260.92 92.4355 247.825 60.8233 224.046 37.0342C200.267 13.255 168.645 0.160004 135.012 0.160004Z" fill="white"/>
<path d="M130.58 167.594L80.9102 137.613L130.74 208.01L180.57 137.613L130.58 167.594Z" fill="white"/>
<path d="M202.28 223.446C201.43 223.446 200.6 223.186 199.9 222.686L169.83 201.457C167.96 200.137 167.51 197.546 168.83 195.675L190.05 165.594C190.69 164.683 191.64 164.083 192.74 163.893C193.83 163.703 194.93 163.953 195.84 164.593L225.91 185.821C226.82 186.462 227.42 187.412 227.61 188.512C227.8 189.603 227.55 190.703 226.91 191.614L205.69 221.695C205.05 222.605 204.1 223.206 203 223.396C202.76 223.436 202.52 223.456 202.29 223.456L202.28 223.446ZM201.63 220.235C201.88 220.415 202.18 220.485 202.49 220.425C202.79 220.375 203.06 220.205 203.23 219.954L224.45 189.873C224.63 189.623 224.7 189.313 224.64 189.013C224.59 188.712 224.42 188.442 224.17 188.272L194.1 167.044C193.85 166.864 193.55 166.794 193.24 166.854C192.94 166.904 192.67 167.074 192.5 167.324L171.28 197.406C170.91 197.926 171.04 198.646 171.56 199.006L201.63 220.235Z" fill="white"/>
<path d="M196.94 189.643C196.64 189.643 196.34 189.553 196.08 189.373L187.55 183.35C186.87 182.87 186.71 181.94 187.19 181.26L193.21 172.726C193.69 172.046 194.62 171.886 195.3 172.366L203.83 178.388C204.51 178.869 204.67 179.799 204.19 180.479L198.17 189.013C197.88 189.423 197.41 189.653 196.94 189.653V189.643ZM190.5 181.76L196.58 186.051L200.87 179.969L194.79 175.677L190.5 181.76Z" fill="white"/>
<path d="M186.36 204.639C186.06 204.639 185.76 204.549 185.5 204.368L176.97 198.346C176.64 198.116 176.43 197.766 176.36 197.376C176.29 196.986 176.38 196.585 176.61 196.255L182.63 187.722C183.11 187.042 184.04 186.882 184.72 187.362L193.25 193.384C193.58 193.614 193.79 193.964 193.86 194.355C193.93 194.745 193.84 195.145 193.61 195.475L187.59 204.008C187.3 204.418 186.83 204.649 186.36 204.649V204.639ZM179.92 196.756L186 201.047L190.29 194.965L184.21 190.673L179.92 196.756Z" fill="white"/>
<path d="M211.879 200.197C211.569 200.197 211.269 200.107 211.009 199.927L202.479 193.904C201.799 193.424 201.639 192.494 202.119 191.814L208.139 183.28C208.369 182.95 208.719 182.73 209.109 182.67C209.499 182.6 209.899 182.69 210.229 182.92L218.759 188.943C219.439 189.423 219.599 190.353 219.119 191.033L213.099 199.567C212.869 199.897 212.519 200.117 212.129 200.177C212.049 200.187 211.959 200.197 211.879 200.197ZM205.439 192.314L211.519 196.605L215.809 190.523L209.729 186.231L205.439 192.314Z" fill="white"/>
<path d="M201.31 215.193C201 215.193 200.7 215.103 200.44 214.923L191.91 208.9C191.23 208.42 191.07 207.49 191.55 206.809L197.57 198.276C197.8 197.946 198.15 197.726 198.54 197.666C198.93 197.596 199.33 197.686 199.66 197.916L208.19 203.938C208.87 204.418 209.03 205.349 208.55 206.029L202.53 214.562C202.3 214.893 201.95 215.113 201.56 215.173C201.48 215.183 201.39 215.193 201.31 215.193ZM194.87 207.31L200.95 211.601L205.24 205.519L199.16 201.227L194.87 207.31Z" fill="white"/>
<path d="M46.33 180.559C46.09 180.559 45.85 180.549 45.61 180.519C43.9 180.329 42.36 179.489 41.29 178.138C39.07 175.367 39.52 171.296 42.29 169.075C43.63 167.994 45.31 167.504 47.03 167.694C48.74 167.884 50.28 168.725 51.35 170.075C52.43 171.416 52.92 173.096 52.73 174.817C52.54 176.528 51.7 178.068 50.36 179.139C49.2 180.069 47.8 180.559 46.34 180.559H46.33ZM46.31 170.666C45.53 170.666 44.78 170.926 44.16 171.426C42.68 172.616 42.44 174.787 43.63 176.268C44.21 176.988 45.03 177.438 45.94 177.538C46.85 177.638 47.75 177.378 48.47 176.798C49.19 176.218 49.64 175.397 49.74 174.487C49.84 173.577 49.58 172.676 49 171.956C48.42 171.236 47.6 170.786 46.69 170.686C46.56 170.676 46.43 170.666 46.31 170.666Z" fill="white"/>
<path d="M61.2601 199.196C59.3701 199.196 57.5001 198.366 56.2301 196.786C55.1501 195.445 54.6601 193.754 54.8501 192.044C55.0401 190.333 55.8801 188.792 57.2301 187.722C60.0001 185.501 64.0601 185.951 66.2901 188.722C67.3701 190.063 67.8601 191.754 67.6701 193.464C67.4801 195.175 66.6401 196.716 65.2901 197.786C64.1001 198.736 62.6801 199.196 61.2601 199.196ZM61.2501 189.303C60.4701 189.303 59.7201 189.563 59.1001 190.063C57.6201 191.253 57.3801 193.424 58.5701 194.905C59.7601 196.385 61.9301 196.625 63.4101 195.435C64.1301 194.855 64.5801 194.034 64.6801 193.124C64.7801 192.214 64.5201 191.313 63.9401 190.593C63.3601 189.873 62.5401 189.423 61.6301 189.323C61.5001 189.313 61.3701 189.303 61.2501 189.303Z" fill="white"/>
<path d="M37.65 205.779C37.41 205.779 37.17 205.769 36.93 205.739C35.22 205.549 33.68 204.709 32.61 203.358C31.53 202.018 31.04 200.337 31.23 198.616C31.42 196.906 32.26 195.365 33.61 194.295C34.96 193.224 36.64 192.724 38.35 192.914C40.06 193.104 41.6 193.944 42.67 195.295C43.75 196.636 44.24 198.316 44.05 200.037C43.86 201.747 43.02 203.288 41.67 204.358C40.51 205.289 39.11 205.779 37.65 205.779ZM37.63 195.885C36.85 195.885 36.1 196.145 35.48 196.646C34.76 197.226 34.31 198.046 34.21 198.956C34.11 199.877 34.37 200.767 34.95 201.487C35.53 202.208 36.35 202.658 37.26 202.758C38.18 202.858 39.07 202.598 39.79 202.018C40.51 201.437 40.96 200.617 41.06 199.707C41.16 198.796 40.9 197.896 40.32 197.176C39.74 196.455 38.92 196.005 38.01 195.905C37.88 195.895 37.75 195.885 37.63 195.885Z" fill="white"/>
<path d="M76.4298 218.114C76.1898 218.114 75.9498 218.104 75.7098 218.074C73.9998 217.884 72.4598 217.043 71.3898 215.693C70.3098 214.352 69.8198 212.672 70.0098 210.951C70.1998 209.24 71.0398 207.7 72.3898 206.629C75.1598 204.408 79.2298 204.849 81.4498 207.63C82.5298 208.97 83.0198 210.661 82.8298 212.372C82.6398 214.082 81.7998 215.623 80.4498 216.693C79.2998 217.624 77.8898 218.114 76.4298 218.114ZM76.4098 208.22C75.6498 208.22 74.8898 208.47 74.2598 208.98C73.5398 209.56 73.0898 210.381 72.9898 211.291C72.8898 212.201 73.1498 213.102 73.7298 213.822C74.3098 214.542 75.1298 214.993 76.0398 215.093C76.9498 215.193 77.8498 214.933 78.5698 214.352C80.0498 213.162 80.2898 210.991 79.0998 209.51C78.4198 208.66 77.4198 208.22 76.4098 208.22Z" fill="white"/>
<path d="M42.8699 199.457C42.1899 199.457 41.5699 198.986 41.4099 198.296C41.2199 197.486 41.7299 196.686 42.5299 196.495L56.4899 193.274C57.2999 193.084 58.0999 193.594 58.2899 194.395C58.4799 195.205 57.9699 196.005 57.1699 196.195L43.2099 199.417C43.0999 199.447 42.9799 199.457 42.8699 199.457Z" fill="white"/>
<path d="M53.7699 223.696C51.8799 223.696 50.0099 222.866 48.7399 221.285C47.6599 219.944 47.1699 218.264 47.3599 216.543C47.5499 214.832 48.3899 213.292 49.7399 212.222C52.5099 210.001 56.5799 210.441 58.7999 213.222C59.8799 214.562 60.3699 216.253 60.1799 217.964C59.9899 219.674 59.1499 221.215 57.7999 222.285C56.6099 223.236 55.1899 223.696 53.7799 223.696H53.7699ZM53.7599 213.802C52.9999 213.802 52.2399 214.052 51.6099 214.562C50.8899 215.143 50.4399 215.963 50.3399 216.873C50.2399 217.784 50.4999 218.684 51.0799 219.404C51.6599 220.125 52.4799 220.575 53.3899 220.675C54.3099 220.775 55.1999 220.515 55.9199 219.934C57.3999 218.744 57.6399 216.573 56.4499 215.093C55.7699 214.242 54.7699 213.802 53.7599 213.802Z" fill="white"/>
<path d="M58.5399 217.514C57.8299 217.514 57.1999 217.013 57.0699 216.283C56.9199 215.473 57.4599 214.682 58.2699 214.532L71.6099 212.041C72.4199 211.891 73.2099 212.422 73.3599 213.242C73.5099 214.052 72.9699 214.843 72.1599 214.993L58.8199 217.484C58.7299 217.504 58.6399 217.514 58.5399 217.514Z" fill="white"/>
<path d="M41.8152 202.117L39.667 204.212L49.6071 214.413L51.7553 212.318L41.8152 202.117Z" fill="white"/>
<path d="M42.6208 177.975L36.042 192.784L38.7835 194.003L45.3623 179.193L42.6208 177.975Z" fill="white"/>
<path d="M72.9801 177.438C72.7401 177.438 72.5001 177.428 72.2601 177.398C70.5501 177.208 69.0101 176.368 67.9401 175.017C66.8601 173.677 66.3701 171.996 66.5601 170.275C66.7501 168.565 67.5901 167.024 68.9401 165.954C71.7101 163.733 75.7801 164.173 78.0001 166.954C80.2201 169.725 79.7701 173.797 77.0001 176.018C75.8401 176.948 74.4401 177.438 72.9801 177.438ZM72.9601 167.544C72.1801 167.544 71.4301 167.804 70.8101 168.305C69.3301 169.495 69.0901 171.666 70.2801 173.146C70.8601 173.867 71.6801 174.317 72.5901 174.417C73.5101 174.517 74.4001 174.257 75.1201 173.677C76.6001 172.486 76.8401 170.315 75.6501 168.835C75.0701 168.115 74.2501 167.664 73.3401 167.564C73.2101 167.554 73.0801 167.544 72.9601 167.544Z" fill="white"/>
<path d="M64.3098 190.243C64.0898 190.243 63.8698 190.193 63.6598 190.093C62.9098 189.733 62.5998 188.842 62.9498 188.092L69.1298 175.157C69.4898 174.407 70.3798 174.097 71.1298 174.447C71.8798 174.807 72.1898 175.697 71.8398 176.448L65.6598 189.383C65.3998 189.923 64.8698 190.233 64.3098 190.233V190.243Z" fill="white"/>
<path d="M86.9498 197.086C85.0598 197.086 83.1898 196.255 81.9098 194.675C80.8298 193.334 80.3398 191.644 80.5298 189.933C80.7198 188.222 81.5598 186.682 82.9098 185.611C84.2498 184.531 85.9398 184.041 87.6498 184.231C89.3598 184.421 90.8998 185.261 91.9698 186.612C93.0498 187.952 93.5398 189.633 93.3498 191.353C93.1598 193.064 92.3198 194.605 90.9698 195.675C89.7798 196.625 88.3598 197.086 86.9398 197.086H86.9498ZM86.9398 187.192C86.1598 187.192 85.4098 187.452 84.7898 187.952C83.3098 189.143 83.0698 191.313 84.2598 192.794C85.4498 194.275 87.6198 194.515 89.0998 193.324C89.8198 192.744 90.2698 191.924 90.3698 191.013C90.4698 190.103 90.2098 189.203 89.6298 188.482C89.0498 187.762 88.2298 187.312 87.3198 187.212C87.1898 187.202 87.0598 187.192 86.9398 187.192Z" fill="white"/>
<path d="M79.3601 209.03C79.1601 209.03 78.9601 208.99 78.7701 208.91C78.0101 208.58 77.6501 207.7 77.9801 206.939L83.3101 194.455C83.6401 193.694 84.5201 193.344 85.2801 193.664C86.0401 193.994 86.4001 194.875 86.0701 195.635L80.7401 208.12C80.5001 208.69 79.9401 209.03 79.3601 209.03Z" fill="white"/>
<path d="M77.3 174.068L74.7886 175.71L82.5775 187.636L85.089 185.994L77.3 174.068Z" fill="white"/>
<path d="M66.9531 168.003L51.0728 171.206L51.6657 174.148L67.5461 170.945L66.9531 168.003Z" fill="white"/>
<path d="M50.5651 177.058L48.2241 178.935L56.9732 189.856L59.3141 187.979L50.5651 177.058Z" fill="white"/>
<path d="M66.0643 196.327L63.7236 198.205L71.6176 208.055L73.9583 206.178L66.0643 196.327Z" fill="white"/>
<path d="M130.75 232.049L73.8701 151.528L76.3101 149.797L130.75 226.857L185.29 149.788L187.74 151.528L130.75 232.049Z" fill="white"/>
<path d="M95.1297 55.0911L94.5997 53.5905C94.5497 53.5305 94.2496 53.3104 94.0797 53.1904C90.8396 50.8595 85.7796 47.9383 79.0296 44.497C74.4496 42.1661 73.2296 42.2762 71.3396 45.2273C70.9596 45.8075 70.5996 46.3878 70.2496 46.938C67.8396 50.7694 65.9296 53.8006 63.3096 54.2408C62.1096 54.4409 60.9296 54.0807 59.7796 53.1704C58.8496 52.4201 58.3296 51.2896 58.2296 49.8091C57.9296 45.2273 61.7197 38.0846 64.7097 34.6632C64.4597 30.8018 66.0596 28.861 67.0296 27.6806C67.1396 27.5405 67.2497 27.4105 67.3497 27.2904L67.5697 27.0603C69.6597 25.3097 72.4996 24.8895 74.9396 25.9199C77.3997 24.2192 80.6396 23.9791 83.3096 25.3797C85.1096 26.33 86.4696 27.9007 87.1496 29.7914C87.8896 29.8714 88.6196 30.0815 89.2896 30.4416C90.2996 30.9718 91.1196 31.7621 91.6696 32.7325C93.0696 32.5524 94.4596 32.8025 95.7296 33.4728C98.4696 34.9134 99.8696 37.9245 99.3396 40.8856C100.6 41.6159 101.52 42.7764 101.95 44.1869C102.4 45.6675 102.25 47.2481 101.53 48.6286C99.2096 53.2604 96.8396 54.3708 96.5797 54.4809L95.1096 55.1011L95.1297 55.0911ZM69.6196 29.2712C69.5396 29.3712 69.4496 29.4813 69.3596 29.5913C68.4496 30.7017 67.4097 31.9522 67.7697 35.0234L67.8497 35.7237L67.3596 36.2339C64.4696 39.225 61.0097 46.1277 61.2397 49.619C61.2697 50.0392 61.3596 50.5894 61.6696 50.8295C62.3396 51.3697 62.7097 51.3097 62.8197 51.2896C64.1197 51.0696 65.9496 48.1584 67.7196 45.3474C68.0696 44.7871 68.4397 44.2069 68.8197 43.6067C72.2597 38.2446 75.9396 39.5551 80.3996 41.826C87.2896 45.3373 92.4797 48.3385 95.8197 50.7394C95.9497 50.8295 96.0996 50.9395 96.2496 51.0595C96.8997 50.4393 97.8696 49.2789 98.8896 47.2481C99.2596 46.5478 99.3297 45.7775 99.1096 45.0572C98.8896 44.347 98.4096 43.7567 97.7596 43.4166C97.5796 43.3266 97.3997 43.2565 97.1897 43.1965L95.5396 42.7664L96.1796 41.1858C96.9696 39.255 96.1796 37.0742 94.3696 36.1238C93.4196 35.6236 92.3297 35.5436 91.2997 35.8837L89.8197 36.3739L89.3797 34.8733C89.1497 34.093 88.6296 33.4528 87.9296 33.0827C87.3996 32.8025 86.8096 32.6925 86.2196 32.7725L84.8296 32.9426L84.5596 31.5721C84.2596 30.0315 83.3097 28.741 81.9396 28.0307C80.0696 27.0503 77.7297 27.3604 76.1297 28.801L75.2997 29.5513L74.3396 28.9611C74.2296 28.891 74.1697 28.851 74.0997 28.821C72.6697 28.0707 70.9297 28.2408 69.6297 29.2612L69.6196 29.2712Z" fill="white"/>
<path d="M62.4999 114.604C62.1099 114.604 61.6999 114.544 61.2899 114.414C57.8099 113.353 50.9299 109.992 48.9399 108.962C46.7999 107.841 40.0099 103.97 37.4299 101.909C36.1099 100.859 35.6599 99.3381 36.2999 98.1076L36.4499 97.8775C40.8599 92.2254 47.7499 83.2019 48.6499 81.4912C49.4299 80.0007 50.2399 76.6794 51.1799 72.8179C52.7599 66.3254 54.9299 57.432 58.6799 50.2793L61.3399 51.6698C57.7599 58.5024 55.7299 66.8356 54.0899 73.5282C53.0599 77.7398 52.2499 81.0711 51.2999 82.8818C50.0699 85.2327 41.0899 96.7971 39.0999 99.3581C39.1499 99.4181 39.2099 99.4782 39.3099 99.5582C41.6299 101.399 48.0999 105.12 50.3499 106.301C52.5499 107.451 59.0799 110.602 62.1799 111.543C62.2899 111.573 62.3799 111.593 62.4599 111.603C63.4399 108.492 67.9599 94.2762 69.2299 91.8452C70.2099 89.9845 72.5899 87.2835 75.6199 83.8622C80.1199 78.7602 85.7299 72.4178 88.9499 66.2554C94.1299 56.3716 94.5399 53.0703 94.5399 53.0403L97.5299 53.2904C97.4999 53.6506 97.0999 57.1419 91.6099 67.6459C88.2199 74.1284 82.4799 80.6209 77.8699 85.8429C75.0999 88.9841 72.6999 91.6952 71.8899 93.2358C70.8499 95.2165 66.6999 108.131 65.1799 112.943L65.0799 113.193C64.5999 114.104 63.6399 114.614 62.5199 114.614L62.4999 114.604Z" fill="white"/>
<path d="M62.7398 106.661C60.2798 106.661 56.7498 105.931 51.8798 103.37C41.2598 97.7975 41.3797 92.3955 41.4297 91.7952L44.4198 92.0353L42.9198 91.9153L44.4198 91.9853C44.4198 91.9853 44.4598 96.0869 53.2698 100.699C62.1698 105.36 65.3698 103.11 65.3898 103.08L67.3697 105.33C67.1197 105.551 65.7297 106.641 62.7297 106.641L62.7398 106.661Z" fill="white"/>
<path d="M108.64 36.1438C105.24 36.1438 102.48 33.3828 102.48 29.9815C102.48 26.5802 105.24 23.8191 108.64 23.8191C112.04 23.8191 114.8 26.5802 114.8 29.9815C114.8 33.3828 112.04 36.1438 108.64 36.1438ZM108.64 26.8102C106.9 26.8102 105.48 28.2308 105.48 29.9715C105.48 31.7121 106.9 33.1327 108.64 33.1327C110.38 33.1327 111.8 31.7121 111.8 29.9715C111.8 28.2308 110.38 26.8102 108.64 26.8102Z" fill="white"/>
<path d="M56.8397 161.612C53.4397 161.612 50.6797 158.851 50.6797 155.45C50.6797 152.048 53.4397 149.287 56.8397 149.287C60.2397 149.287 62.9997 152.048 62.9997 155.45C62.9997 158.851 60.2397 161.612 56.8397 161.612ZM56.8397 152.278C55.0997 152.278 53.6797 153.699 53.6797 155.44C53.6797 157.18 55.0997 158.601 56.8397 158.601C58.5797 158.601 59.9997 157.18 59.9997 155.44C59.9997 153.699 58.5797 152.278 56.8397 152.278Z" fill="white"/>
<path d="M104.27 228.358C100.79 228.358 97.9697 225.527 97.9697 222.055C97.9697 218.584 100.8 215.753 104.27 215.753C107.74 215.753 110.57 218.584 110.57 222.055C110.57 225.527 107.74 228.358 104.27 228.358ZM104.27 218.754C102.45 218.754 100.97 220.235 100.97 222.055C100.97 223.876 102.45 225.357 104.27 225.357C106.09 225.357 107.57 223.876 107.57 222.055C107.57 220.235 106.09 218.754 104.27 218.754Z" fill="white"/>
<path d="M152.58 36.1438C149.18 36.1438 146.42 33.3828 146.42 29.9815C146.42 26.5802 149.18 23.8191 152.58 23.8191C155.98 23.8191 158.74 26.5802 158.74 29.9815C158.74 33.3828 155.98 36.1438 152.58 36.1438ZM152.58 26.8102C150.84 26.8102 149.42 28.2308 149.42 29.9715C149.42 31.7121 150.84 33.1327 152.58 33.1327C154.32 33.1327 155.74 31.7121 155.74 29.9715C155.74 28.2308 154.32 26.8102 152.58 26.8102Z" fill="white"/>
<path d="M47.9597 61.0734C45.3497 61.0734 43.2197 58.9426 43.2197 56.3316C43.2197 53.7206 45.3497 51.5898 47.9597 51.5898C50.5697 51.5898 52.6997 53.7206 52.6997 56.3316C52.6997 58.9426 50.5697 61.0734 47.9597 61.0734ZM47.9597 54.5909C46.9997 54.5909 46.2197 55.3712 46.2197 56.3316C46.2197 57.292 46.9997 58.0723 47.9597 58.0723C48.9197 58.0723 49.6997 57.292 49.6997 56.3316C49.6997 55.3712 48.9197 54.5909 47.9597 54.5909Z" fill="white"/>
<path d="M3.8901 103.2L3.6001 100.208C3.8401 100.188 27.8001 97.6775 33.4501 86.5732C35.8401 81.8714 35.6501 75.529 35.4501 69.4066C35.1701 60.4632 34.8801 51.2196 42.5001 46.2477C51.2001 40.5655 58.5501 46.2877 61.2301 50.1192L58.7701 51.8399C58.5201 51.4897 52.5701 43.2666 44.1401 48.7687C37.9301 52.8202 38.1901 60.8333 38.4501 69.3266C38.6501 75.8291 38.8701 82.5617 36.1201 87.9538C29.7301 100.519 4.9401 103.11 3.8901 103.21V103.2Z" fill="white"/>
<path d="M257 106.641C256.05 106.531 233.65 103.71 227.27 91.165C224.53 85.7729 224.74 79.0503 224.94 72.5378C225.21 64.0546 225.46 56.0415 219.25 51.9799C216.56 50.2293 214.05 49.619 211.8 50.1692C208.39 51.0095 206.54 54.2608 206.52 54.2908L203.9 52.8403C204 52.6602 206.37 48.4386 211.06 47.2681C214.17 46.4978 217.48 47.2381 220.9 49.469C228.52 54.4409 228.23 63.6944 227.95 72.6279C227.76 78.7502 227.56 85.0926 229.95 89.7945C235.62 100.929 257.15 103.62 257.36 103.65L257 106.631V106.641Z" fill="white"/>
<path d="M99.1098 55.0711C97.9298 55.0711 96.7498 54.901 95.5498 54.5209L96.4598 51.6598C106.69 54.931 117.88 37.6344 117.99 37.4543L120.52 39.0649C120.06 39.7852 110.17 55.0711 99.1098 55.0711Z" fill="white"/>
<path d="M163.04 55.0711C151.89 55.0711 141.47 39.8152 140.99 39.105L143.48 37.4243C143.6 37.6044 155.45 54.931 165.7 51.6598L166.61 54.5209C165.42 54.901 164.23 55.0711 163.04 55.0711Z" fill="white"/>
<path d="M176.87 57.6321C176.73 57.6321 176.6 57.6121 176.46 57.5721L167.84 55.1211C167.37 54.9911 167 54.6409 166.84 54.1808L162.59 42.1561C162.31 41.3758 162.72 40.5155 163.5 40.2454L170.4 37.8045C170.78 37.6744 171.19 37.6944 171.55 37.8645C171.91 38.0346 172.19 38.3447 172.32 38.7148L178.29 55.6313C178.48 56.1615 178.35 56.7518 177.97 57.1619C177.68 57.472 177.29 57.6321 176.88 57.6321H176.87ZM169.41 52.4501L174.49 53.9007L169.99 41.1357L165.92 42.5763L169.41 52.4601V52.4501Z" fill="white"/>
<path d="M185.13 60.023L176.51 57.5821C176.04 57.452 175.67 57.1019 175.51 56.6417L167.67 34.4332C167.54 34.053 167.56 33.6429 167.73 33.2827C167.9 32.9226 168.21 32.6425 168.59 32.5124L175.49 30.0815C176.28 29.8114 177.13 30.2216 177.4 31.0019L182.88 46.5378L180.05 47.5382L175.07 33.4128L171 34.8433L178.08 54.901L185.95 57.1319L185.14 60.023H185.13Z" fill="white"/>
<path d="M197.26 53.1704C197.08 53.1704 196.89 53.1404 196.72 53.0703C196.2 52.8703 195.83 52.3901 195.77 51.8299L193.87 33.8429C193.78 33.0226 194.38 32.2823 195.2 32.1923L202.48 31.422C202.87 31.382 203.27 31.492 203.58 31.7521C203.89 32.0022 204.09 32.3624 204.13 32.7625L205.48 45.5975C205.53 46.0777 205.34 46.5578 204.98 46.878L198.25 52.8002C197.97 53.0403 197.62 53.1704 197.26 53.1704ZM197.01 35.0134L198.45 48.6186L202.42 45.1273L201.31 34.5532L197.02 35.0034L197.01 35.0134Z" fill="white"/>
<path d="M191.5 58.7325L189.51 56.4817L195.66 51.0696L193.41 29.7714L189.12 30.2216L190.54 43.6767L187.56 43.9968L185.98 29.0511C185.89 28.2308 186.49 27.4905 187.31 27.4005L194.58 26.6302C194.97 26.5902 195.37 26.7002 195.68 26.9603C195.99 27.2104 196.19 27.5705 196.23 27.9707L198.72 51.5297C198.77 52.0099 198.58 52.4901 198.22 52.8102L191.49 58.7325H191.5Z" fill="white"/>
<path d="M188.45 60.9133C188.31 60.9133 188.17 60.8933 188.04 60.8533L183.56 59.5828C183.03 59.4328 182.62 59.0026 182.5 58.4724L175.29 26.5602C175.11 25.7498 175.61 24.9495 176.42 24.7695L184.33 22.9788C184.72 22.8887 185.12 22.9588 185.46 23.1688C185.8 23.3789 186.03 23.7191 186.12 24.1092L193.34 56.0615C193.46 56.5917 193.28 57.1519 192.87 57.5121L189.44 60.5332C189.16 60.7733 188.81 60.9034 188.45 60.9034V60.9133ZM185.23 56.9318L188.08 57.7421L190.23 55.8514L183.54 26.23L178.56 27.3605L185.24 56.9318H185.23Z" fill="white"/>
<path d="M218.64 94.6563C218.64 94.6563 218.58 94.6563 218.55 94.6563L210.46 94.1861C210.06 94.1661 209.69 93.9861 209.43 93.6859C209.17 93.3858 209.03 92.9957 209.05 92.6055L210.94 60.2731C210.99 59.4428 211.67 58.8125 212.52 58.8626L220.61 59.3327C221.01 59.3527 221.38 59.5328 221.64 59.8329C221.9 60.133 222.04 60.5232 222.02 60.9133L220.13 93.2458C220.08 94.0461 219.42 94.6563 218.63 94.6563H218.64ZM212.13 91.275L217.23 91.5751L218.95 62.2338L213.85 61.9337L212.13 91.275Z" fill="white"/>
<path d="M201.05 114.854C200.52 114.854 200.02 114.574 199.75 114.104L164.85 53.8406C164.54 53.3104 164.59 52.6502 164.96 52.17C165.33 51.6898 165.96 51.4797 166.55 51.6498L168.65 52.24L168.24 53.7106L199.89 108.362L204.22 46.0176L203 44.6171L204.87 42.9765C205.33 42.5763 205.98 42.4863 206.53 42.7564C207.07 43.0265 207.4 43.5967 207.36 44.2069L202.55 113.454C202.51 114.114 202.04 114.664 201.39 114.814C201.28 114.844 201.16 114.854 201.05 114.854Z" fill="white"/>
<path d="M176.56 57.6021L176.52 57.5921L177.23 54.6709L176.56 57.6021Z" fill="white"/>
<path d="M198.06 52.9393L196.4 50.4393L198.09 52.9193L198.06 52.9393Z" fill="white"/>
<path d="M31.48 187.192C30.87 187.192 30.3001 186.822 30.0801 186.222C26.8501 177.608 32.5701 171.866 32.8201 171.616C33.4101 171.036 34.3601 171.046 34.9401 171.636C35.5201 172.226 35.5101 173.176 34.9201 173.757C34.7201 173.957 30.3601 178.429 32.8901 185.161C33.1801 185.941 32.79 186.802 32.01 187.092C31.84 187.162 31.66 187.192 31.48 187.192Z" fill="white"/>
<path d="M104.45 237.821C96.7601 237.821 88.3801 234.77 84.6201 231.729C83.9801 231.209 83.8801 230.258 84.4001 229.618C84.9201 228.978 85.8601 228.878 86.5101 229.398C90.8501 232.909 102.73 236.401 110.25 234.02C113.7 232.929 115.92 230.729 116.85 227.467C117.08 226.667 117.91 226.217 118.7 226.437C119.5 226.667 119.96 227.497 119.73 228.288C118.52 232.509 115.56 235.48 111.15 236.881C109.08 237.531 106.8 237.821 104.45 237.821Z" fill="white"/>
<path d="M204.65 159.011C201.25 159.011 198.49 156.25 198.49 152.849C198.49 149.447 201.25 146.686 204.65 146.686C208.05 146.686 210.81 149.447 210.81 152.849C210.81 156.25 208.05 159.011 204.65 159.011ZM204.65 149.677C202.91 149.677 201.49 151.098 201.49 152.839C201.49 154.579 202.91 156 204.65 156C206.39 156 207.81 154.579 207.81 152.839C207.81 151.098 206.39 149.677 204.65 149.677Z" fill="white"/>
<path d="M157.22 228.358C153.74 228.358 150.92 225.527 150.92 222.055C150.92 218.584 153.75 215.753 157.22 215.753C160.69 215.753 163.52 218.584 163.52 222.055C163.52 225.527 160.69 228.358 157.22 228.358ZM157.22 218.754C155.4 218.754 153.92 220.235 153.92 222.055C153.92 223.876 155.4 225.357 157.22 225.357C159.04 225.357 160.52 223.876 160.52 222.055C160.52 220.235 159.04 218.754 157.22 218.754Z" fill="white"/>
<path d="M225.73 192.144C225.47 192.144 225.2 192.074 224.95 191.924C224.24 191.494 224.01 190.573 224.44 189.863C230.1 180.499 224.8 174.757 224.57 174.517C224 173.917 224.02 172.976 224.61 172.396C225.2 171.826 226.15 171.836 226.72 172.426C226.79 172.496 233.91 179.999 227 191.413C226.72 191.884 226.22 192.134 225.72 192.134L225.73 192.144Z" fill="white"/>
<path d="M157.4 247.025C137.49 247.025 127.49 227.487 127.38 227.257C127.01 226.517 127.31 225.617 128.05 225.246C128.79 224.876 129.69 225.176 130.06 225.917C130.53 226.857 141.9 248.976 165.01 243.013C183.61 238.221 193.12 229.908 195.41 227.687C194.88 227.687 194.27 227.727 193.72 227.807C193.67 227.807 193.62 227.817 193.57 227.817C193 227.837 179.67 228.308 172.18 219.514C167.6 214.132 166.27 206.549 168.23 196.976C168.4 196.165 169.19 195.645 170 195.805C170.81 195.975 171.33 196.766 171.17 197.576C169.4 206.189 170.51 212.912 174.45 217.554C180.73 224.946 192.39 224.846 193.37 224.826C196.42 224.396 198.3 224.826 198.96 226.087C199.3 226.737 199.44 227.797 198.17 229.148C197.8 229.568 188.23 240.122 165.76 245.914C162.8 246.675 160.01 247.015 157.4 247.015V247.025Z" fill="white"/>
<path d="M104.3 247.215C101.48 247.215 98.4397 246.845 95.1597 246.004C72.6897 240.212 63.1197 229.658 62.7197 229.208C61.4797 227.888 61.6197 226.827 61.9597 226.177C62.6197 224.906 64.4997 224.486 67.5497 224.916C68.4897 224.946 79.7397 225.096 85.6097 217.834C89.5797 212.932 90.3297 205.649 87.8497 196.195C87.6397 195.395 88.1197 194.575 88.9197 194.365C89.7197 194.155 90.5397 194.635 90.7497 195.435C93.4897 205.869 92.5397 214.052 87.9197 219.734C80.8397 228.468 67.8797 227.938 67.3297 227.908C67.2797 227.908 67.2397 227.908 67.1897 227.898C66.6297 227.817 66.0197 227.777 65.4997 227.777C67.8397 230.048 77.3397 238.322 95.8897 243.103C118.97 249.056 128.97 229.618 129.38 228.788C129.75 228.048 130.65 227.747 131.39 228.118C132.13 228.488 132.43 229.388 132.07 230.128C131.97 230.328 123.36 247.225 104.28 247.225L104.3 247.215Z" fill="white"/>
<path d="M157.04 237.821C154.69 237.821 152.41 237.541 150.34 236.881C145.93 235.49 142.96 232.519 141.75 228.288C141.52 227.487 141.98 226.657 142.78 226.437C143.57 226.207 144.41 226.667 144.63 227.467C145.56 230.719 147.78 232.929 151.23 234.02C158.75 236.401 170.63 232.909 174.97 229.398C175.61 228.878 176.56 228.978 177.08 229.618C177.6 230.258 177.5 231.209 176.86 231.729C173.1 234.77 164.72 237.821 157.03 237.821H157.04Z" fill="white"/>
<path d="M194.6 127.749C194.09 127.749 193.59 127.489 193.31 127.019L131.27 22.5786C131.15 22.3785 130.97 22.3485 130.87 22.3485C130.77 22.3485 130.59 22.3785 130.47 22.5786L69.7697 124.568C69.3397 125.278 68.4297 125.508 67.7097 125.088C66.9997 124.668 66.7597 123.748 67.1897 123.027L127.89 21.038C128.52 19.9776 129.64 19.3474 130.87 19.3474C132.11 19.3474 133.22 19.9776 133.85 21.038L195.89 125.478C196.31 126.188 196.08 127.109 195.37 127.539C195.13 127.679 194.87 127.749 194.6 127.749Z" fill="white"/>
<path d="M65.0299 128.879C64.4199 128.879 63.7999 128.729 63.2199 128.419C51.5999 122.127 15.5999 107.951 3.08994 124.738L0.689941 122.947C14.5399 104.37 51.5599 118.696 64.6499 125.778C65.0299 125.988 65.4999 125.848 65.7199 125.478L67.1799 123.027L69.7599 124.558L68.2999 127.009C67.5899 128.209 66.3299 128.879 65.0299 128.879Z" fill="white"/>
<path d="M83.2801 164.853L74.1101 151.868C72.0901 149.017 69.0401 146.316 65.0401 143.855C42.6601 130.06 25.2301 125.528 14.6201 130.76C5.49008 135.262 4.33008 145.666 4.32008 145.766L1.33008 145.466C1.38008 144.976 2.64008 133.351 13.2501 128.079C24.9901 122.257 42.9501 126.699 66.6101 141.294C70.9501 143.975 74.3001 146.946 76.5501 150.128L85.7201 163.113L83.2701 164.843L83.2801 164.853Z" fill="white"/>
<path d="M27.0199 157.43C23.6199 157.43 20.8599 154.669 20.8599 151.268C20.8599 147.867 23.6199 145.106 27.0199 145.106C30.4199 145.106 33.1799 147.867 33.1799 151.268C33.1799 154.669 30.4199 157.43 27.0199 157.43ZM27.0199 148.107C25.2799 148.107 23.8599 149.527 23.8599 151.268C23.8599 153.009 25.2799 154.429 27.0199 154.429C28.7599 154.429 30.1799 153.009 30.1799 151.268C30.1799 149.527 28.7599 148.107 27.0199 148.107Z" fill="white"/>
<path d="M28.3901 213.392C20.7501 199.477 18.3401 183.14 22.4001 172.736C24.1801 168.165 27.1501 165.063 30.9901 163.783C36.1601 162.042 40.2001 156.91 40.5801 151.568C40.9001 147.197 38.7201 143.585 34.4401 141.424C29.9301 139.143 25.6801 138.853 21.8201 140.574C11.3801 145.216 6.53008 162.742 6.48008 162.913L3.58008 162.132C3.79008 161.352 8.85007 143.065 20.5901 137.833C25.3201 135.722 30.4401 136.032 35.8001 138.743C41.1401 141.454 43.9801 146.206 43.5701 151.778C43.0901 158.381 38.3101 164.483 31.9401 166.624C28.9301 167.634 26.6601 170.055 25.1901 173.827C21.4901 183.29 23.8901 198.966 31.0101 211.941L28.3801 213.382L28.3901 213.392Z" fill="white"/>
<path d="M179.66 163.033L177.21 161.302L185.3 149.798C187.7 146.416 190.46 143.895 194.53 141.384C218.8 126.419 237.13 121.737 249 127.459C259.01 132.281 260.38 142.655 260.43 143.095L257.45 143.455C257.4 143.075 256.19 134.222 247.66 130.14C240.17 126.549 225.14 126.038 196.11 143.935C192.4 146.226 189.9 148.497 187.75 151.528L179.67 163.033H179.66Z" fill="white"/>
<path d="M196.95 129.7C196.62 129.7 196.3 129.65 195.98 129.55C194.81 129.18 193.83 128.169 192.98 126.459L195.66 125.118C196.33 126.459 196.8 126.659 196.88 126.689C196.97 126.719 197.1 126.679 197.29 126.579C199.19 125.548 243.95 101.679 260.13 123.387L257.73 125.178C246.01 109.452 214 120.946 198.72 129.22C198.13 129.54 197.53 129.7 196.95 129.7Z" fill="white"/>
<path d="M235.2 158.001C231.8 158.001 229.04 155.24 229.04 151.838C229.04 148.437 231.8 145.676 235.2 145.676C238.6 145.676 241.36 148.437 241.36 151.838C241.36 155.24 238.6 158.001 235.2 158.001ZM235.2 148.667C233.46 148.667 232.04 150.088 232.04 151.828C232.04 153.569 233.46 154.989 235.2 154.989C236.94 154.989 238.36 153.569 238.36 151.828C238.36 150.088 236.94 148.667 235.2 148.667Z" fill="white"/>
<path d="M235.16 210.761L232.5 209.37C239.15 196.606 241.12 183.3 237.63 174.647C236.09 170.816 233.61 168.305 230.27 167.174C223.9 165.033 219.11 158.931 218.64 152.328C218.24 146.746 221.07 141.995 226.42 139.293C231.99 136.472 237.25 136.132 242.06 138.283C253.25 143.285 257.83 159.991 258.02 160.692L255.12 161.472C255.08 161.312 250.71 145.436 240.83 141.024C236.89 139.263 232.5 139.584 227.78 141.975C223.5 144.135 221.32 147.737 221.64 152.118C222.03 157.46 226.06 162.592 231.23 164.333C235.38 165.724 238.56 168.905 240.42 173.527C244.22 182.97 242.21 197.236 235.16 210.751V210.761Z" fill="white"/>
<path d="M130.76 42.9164L81.6401 125.448L130.76 155.04L179.88 125.448L130.76 42.9164Z" fill="url(#paint1_linear_79_1427)"/>
<path d="M179.88 125.458L131.15 154.799L130.75 155.03V42.9164L156.53 86.2331L179.88 125.458Z" fill="url(#paint2_linear_79_1427)"/>
<path d="M197.45 132.841L130.55 20.988V20.898L130.52 20.948L130.5 20.898V20.988L63.6001 132.841L130.55 227.367L197.45 132.841Z" fill="white"/>
<path d="M130.41 43.7768L81.3804 126.158L130.41 155.68L179.44 126.158L130.41 43.7768Z" fill="#F3C414"/>
<path d="M130.41 155.68L179.44 126.158L130.41 43.7768V155.68Z" fill="#FF1800"/>
<path d="M130.3 167.464L80.6304 137.473L130.46 207.87L180.29 137.473L130.3 167.464Z" fill="black"/>
<path d="M73.4699 137.733C71.8499 136.602 70.2199 135.472 68.5999 134.332C66.6199 132.951 63.6599 135.762 65.1799 137.753C67.0799 140.244 69.1199 142.585 71.3799 144.746L73.8099 140.564C71.2999 139.694 69.3399 137.663 67.2299 136.132C64.6999 134.292 61.8299 133.061 58.9699 131.851C52.8899 129.29 46.8799 126.539 40.6399 124.388C32.5399 121.597 23.2199 120.236 14.8099 122.377C9.88992 123.637 5.52992 126.368 2.73992 130.66C0.979924 133.361 5.30992 135.872 7.05992 133.181C11.3399 126.609 20.3599 125.868 27.7399 126.589C37.7199 127.559 47.1699 132.261 56.3999 136.142C59.3499 137.383 62.2999 138.653 64.8799 140.564C67.4599 142.475 69.5399 144.355 72.4999 145.376C74.8899 146.206 76.6799 142.865 74.9299 141.194C72.9899 139.333 71.1499 137.353 69.5099 135.212L66.0899 138.633C67.7099 139.764 69.3399 140.894 70.9599 142.035C72.0699 142.805 73.7399 142.235 74.3799 141.134C75.1099 139.884 74.5899 138.483 73.4799 137.713L73.4699 137.733Z" fill="white"/>
<path d="M258.825 128.419C260.136 127.439 260.037 125.178 258.566 124.248C256.231 122.767 253.905 121.297 251.57 119.816L248.072 117.595C247.008 116.925 245.955 116.175 244.713 115.874C243.133 115.504 241.562 116.155 240.718 117.305C239.108 116.785 237.458 116.375 235.788 116.095C234.546 115.884 233.115 115.814 232.747 117.055C232.529 117.055 231.952 117.105 231.734 117.115C229.716 116.645 228.057 116.795 226.039 116.325C224.777 116.035 223.286 116.715 222.978 118.075C222.929 118.305 222.919 118.545 222.929 118.786C221.905 118.826 220.901 119.026 219.908 119.366C218.983 119.406 218.317 119.836 217.89 120.486C217.84 120.486 217.791 120.486 217.731 120.496C216.916 120.586 216.091 120.706 215.286 120.846C213.975 121.076 212.673 121.397 211.391 121.777C210.447 122.017 209.522 122.307 208.618 122.667C206.332 123.477 204.106 124.428 201.88 125.388C196.235 127.839 190.601 130.47 184.459 131.33C183.127 131.52 182.402 133.231 182.72 134.412C183.117 135.852 184.439 136.342 185.781 136.162C187.301 135.952 188.792 135.632 190.263 135.232C190.382 135.432 190.541 135.612 190.71 135.782C189.358 136.732 188.007 137.683 186.655 138.623C185.652 139.323 185.155 140.564 185.612 141.714C185.483 141.844 185.353 141.974 185.214 142.105C183.475 143.785 185.254 147.096 187.629 146.286C190.024 145.466 191.962 144.045 193.94 142.475C195.868 140.944 197.855 139.644 200.081 138.593C205.05 136.252 210.218 134.232 215.296 132.151C220.226 130.13 225.364 128.199 230.68 127.569C235.828 126.959 241.065 127.499 245.975 129.16C248.121 129.89 251.18 130.28 252.581 132.151C254.102 134.161 254.482 137.223 257.215 137.713C258.427 137.933 260.027 137.393 260.275 135.962C260.733 133.251 260.156 130.69 258.815 128.419H258.825ZM219.331 120.376C219.331 120.376 219.232 120.376 219.162 120.386C219.202 120.386 219.272 120.376 219.331 120.366V120.376Z" fill="white"/>
<path d="M130.6 43.6767L81.48 126.208L130.6 155.79L179.72 126.208L130.6 43.6767Z" fill="url(#paint3_linear_79_1427)"/>
<path d="M179.72 126.208L131 155.56L130.59 155.79V43.6667L156.38 86.9934L179.72 126.208Z" fill="url(#paint4_linear_79_1427)"/>
<path d="M75.6701 130.45C68.4201 128.789 61.3101 126.809 54.7901 123.137C53.0801 122.177 51.5101 121.056 49.5301 120.746C48.3401 120.556 47.1801 120.586 46.0001 120.616C45.6401 120.556 45.2801 120.506 44.9201 120.456C44.1101 120.336 43.2901 120.226 42.4701 120.096C41.9601 119.706 41.5601 119.166 40.9601 118.866C38.8701 117.835 37.4301 116.965 35.1801 117.395C35.1601 117.395 34.1301 117.395 34.1101 117.395C34.1501 117.385 33.9401 117.345 33.6801 117.285C33.3701 116.845 32.7601 117.165 32.1901 117.015C30.5001 116.545 28.7401 116.435 27.0101 116.635C26.5401 115.554 25.1701 115.034 24.0201 115.234C22.3501 115.514 20.7101 115.914 19.1001 116.435C18.5001 115.604 17.3701 115.164 16.3601 115.424C11.4501 116.675 6.6001 118.826 2.8801 122.337C2.1801 122.997 2.0101 123.777 2.1701 124.488C1.9301 124.878 1.7801 125.348 1.8001 125.778C1.8001 125.938 1.8301 126.098 1.8701 126.258C1.7601 126.539 1.6901 126.839 1.6901 127.149C1.6901 127.759 1.9601 128.499 2.4201 128.919C2.7101 129.19 3.0601 129.4 3.4301 129.53C2.4001 131.07 1.6001 132.761 1.0901 134.572C0.230098 137.673 5.05011 139.003 5.91011 135.902C6.26011 134.662 6.7801 133.501 7.4601 132.461C11.1601 133.571 13.9601 130.84 16.5101 128.579C18.8401 126.519 22.4701 126.469 25.4201 126.198C31.8901 125.598 38.7201 125.718 44.4801 129.08C45.1701 129.48 45.8401 129.52 46.4201 129.32C47.2301 129.8 48.0401 130.28 48.8501 130.76C50.6701 131.831 52.4201 132.981 54.4601 133.541C58.8101 134.732 63.0401 136.002 67.5601 135.542C67.6101 135.542 67.6601 135.542 67.7101 135.542C68.0501 135.562 68.3801 135.502 68.6801 135.362C69.2201 135.172 69.6301 134.732 69.8901 134.212C71.3601 134.592 72.8301 134.952 74.3101 135.292C77.4401 136.012 78.7801 131.19 75.6401 130.47L75.6701 130.45ZM14.7301 117.325C14.7301 117.325 14.7401 117.285 14.7401 117.275C14.7401 117.295 14.7401 117.305 14.7301 117.325ZM14.6001 117.385C14.6001 117.385 14.6401 117.355 14.6901 117.335C14.6601 117.345 14.6301 117.365 14.6001 117.385Z" fill="white"/>
<path d="M67.4603 133.131C65.1603 132.111 62.8603 131.09 60.5703 130.06C59.9403 129.78 59.3403 129.62 58.6403 129.81C58.0603 129.97 57.4303 130.42 57.1503 130.96C56.8403 131.54 56.6903 132.241 56.9003 132.891C57.0903 133.471 57.4703 134.131 58.0503 134.382C60.3503 135.402 62.6503 136.422 64.9403 137.453C65.5703 137.733 66.1703 137.893 66.8703 137.703C67.4503 137.543 68.0803 137.093 68.3603 136.552C68.6703 135.972 68.8203 135.272 68.6103 134.622C68.4203 134.041 68.0403 133.381 67.4603 133.131Z" fill="white"/>
<path d="M187.98 148.027C191.2 148.027 191.2 143.025 187.98 143.025C184.76 143.025 184.76 148.027 187.98 148.027Z" fill="white"/>
<path d="M72.3203 147.517C75.5403 147.517 75.5403 142.515 72.3203 142.515C69.1003 142.515 69.1003 147.517 72.3203 147.517Z" fill="white"/>
<path d="M182.71 133.471C185.32 134.722 187.93 135.972 190.54 137.223C191.16 137.523 191.79 137.663 192.47 137.473C193.05 137.313 193.68 136.863 193.96 136.322C194.55 135.202 194.32 133.501 193.06 132.901C190.45 131.651 187.84 130.4 185.23 129.15C184.61 128.849 183.98 128.709 183.3 128.899C182.72 129.06 182.09 129.51 181.81 130.05C181.22 131.17 181.45 132.871 182.71 133.471Z" fill="white"/>
<defs>
<linearGradient id="paint0_linear_79_1427" x1="206.76" y1="227.317" x2="49.0951" y2="25.5785" gradientUnits="userSpaceOnUse">
<stop/>
<stop offset="0.12" stop-color="#040000"/>
<stop offset="0.24" stop-color="#100100"/>
<stop offset="0.37" stop-color="#250300"/>
<stop offset="0.5" stop-color="#430600"/>
<stop offset="0.63" stop-color="#680900"/>
<stop offset="0.76" stop-color="#970E00"/>
<stop offset="0.89" stop-color="#CC1300"/>
<stop offset="1" stop-color="#FF1800"/>
</linearGradient>
<linearGradient id="paint1_linear_79_1427" x1="101.82" y1="81.2211" x2="179.759" y2="133.934" gradientUnits="userSpaceOnUse">
<stop stop-color="#FFF33B"/>
<stop offset="0.04" stop-color="#FEE62D"/>
<stop offset="0.12" stop-color="#FDD51B"/>
<stop offset="0.2" stop-color="#FDCA0F"/>
<stop offset="0.28" stop-color="#FDC70C"/>
<stop offset="0.67" stop-color="#F3903F"/>
<stop offset="0.89" stop-color="#ED683C"/>
<stop offset="1" stop-color="#E93E3A"/>
</linearGradient>
<linearGradient id="paint2_linear_79_1427" x1="129.78" y1="48.3385" x2="160.962" y2="160.495" gradientUnits="userSpaceOnUse">
<stop stop-color="#FF1800"/>
<stop offset="0.4" stop-color="#FD1700"/>
<stop offset="0.55" stop-color="#F61600"/>
<stop offset="0.65" stop-color="#EA1500"/>
<stop offset="0.74" stop-color="#D91200"/>
<stop offset="0.81" stop-color="#C30F00"/>
<stop offset="0.87" stop-color="#A80B00"/>
<stop offset="0.93" stop-color="#880700"/>
<stop offset="0.98" stop-color="#630200"/>
<stop offset="1" stop-color="#530000"/>
</linearGradient>
<linearGradient id="paint3_linear_79_1427" x1="101.66" y1="81.9814" x2="179.599" y2="134.694" gradientUnits="userSpaceOnUse">
<stop stop-color="#FFF33B"/>
<stop offset="0.04" stop-color="#FEE62D"/>
<stop offset="0.12" stop-color="#FDD51B"/>
<stop offset="0.2" stop-color="#FDCA0F"/>
<stop offset="0.28" stop-color="#FDC70C"/>
<stop offset="0.67" stop-color="#F3903F"/>
<stop offset="0.89" stop-color="#ED683C"/>
<stop offset="1" stop-color="#E93E3A"/>
</linearGradient>
<linearGradient id="paint4_linear_79_1427" x1="129.63" y1="49.0988" x2="160.802" y2="161.256" gradientUnits="userSpaceOnUse">
<stop stop-color="#FF1800"/>
<stop offset="0.4" stop-color="#FD1700"/>
<stop offset="0.55" stop-color="#F61600"/>
<stop offset="0.65" stop-color="#EA1500"/>
<stop offset="0.74" stop-color="#D91200"/>
<stop offset="0.81" stop-color="#C30F00"/>
<stop offset="0.87" stop-color="#A80B00"/>
<stop offset="0.93" stop-color="#880700"/>
<stop offset="0.98" stop-color="#630200"/>
<stop offset="1" stop-color="#530000"/>
</linearGradient>
</defs>
</svg>
