<svg width="46" height="47" viewBox="0 0 46 47" fill="none" xmlns="http://www.w3.org/2000/svg">
<g filter="url(#filter0_b_43_280)">
<rect y="0.318268" width="46" height="46" rx="23" fill="#EDDAFF" fill-opacity="0.3"/>
<g clip-path="url(#clip0_43_280)">
<path d="M34.7704 17.8738C35.4444 19.4812 35.8074 21.1405 35.8074 22.9035C35.8074 24.6664 35.4444 26.3257 34.7704 27.9331C34.0963 29.5405 33.163 30.8886 32.0222 32.0812C30.8815 33.222 29.4815 34.1553 27.8741 34.8294C26.2667 35.5035 24.6074 35.8664 22.8444 35.8664C21.0815 35.8664 19.4222 35.5035 17.8148 34.8294C16.2074 34.1553 14.8592 33.222 13.6667 32.0812C12.5259 30.9405 11.5926 29.5405 10.9185 27.9331C10.2444 26.3257 9.88147 24.6664 9.88147 22.9035C9.88147 21.1405 10.2444 19.4812 10.9185 17.8738C11.5926 16.2664 12.5259 14.9183 13.6667 13.7257C14.8074 12.5849 16.2074 11.6516 17.8148 10.9775C19.4222 10.3035 21.0815 9.94049 22.8444 9.94049C24.6074 9.94049 26.2667 10.3035 27.8741 10.9775C29.4815 11.6516 30.8296 12.5849 32.0222 13.7257C33.163 14.9183 34.0444 16.3183 34.7704 17.8738ZM27.0444 28.8664L29.1704 18.859C29.2741 18.4442 29.2222 18.1331 29.0148 17.9257C28.8074 17.7183 28.6 17.7183 28.2889 17.822L15.7926 22.6442C15.5333 22.7479 15.3259 22.8516 15.2222 23.0072C15.1185 23.1627 15.1185 23.2664 15.1704 23.3701C15.2222 23.4738 15.3778 23.5775 15.637 23.6294L18.8518 24.6146L26.2667 19.9479C26.4741 19.7923 26.6296 19.7923 26.7333 19.8442C26.7852 19.896 26.7852 19.9479 26.6815 20.0516L20.6667 25.5479L20.4074 28.8664C20.6148 28.8664 20.8222 28.7627 21.0815 28.5553L22.637 27.0516L25.8518 29.4368C26.5259 29.7997 26.8889 29.5923 27.0444 28.8664Z" fill="white"/>
</g>
</g>
<defs>
<filter id="filter0_b_43_280" x="-10.9" y="-10.5817" width="67.8" height="67.8" filterUnits="userSpaceOnUse" color-interpolation-filters="sRGB">
<feFlood flood-opacity="0" result="BackgroundImageFix"/>
<feGaussianBlur in="BackgroundImageFix" stdDeviation="5.45"/>
<feComposite in2="SourceAlpha" operator="in" result="effect1_backgroundBlur_43_280"/>
<feBlend mode="normal" in="SourceGraphic" in2="effect1_backgroundBlur_43_280" result="shape"/>
</filter>
<clipPath id="clip0_43_280">
<rect width="28" height="28" fill="white" transform="translate(9 9.31827)"/>
</clipPath>
</defs>
</svg>
