<svg width="47" height="47" viewBox="0 0 47 47" fill="none" xmlns="http://www.w3.org/2000/svg">
<g filter="url(#filter0_b_43_279)">
<rect x="0.141357" y="0.318268" width="46" height="46" rx="23" fill="#EDDAFF" fill-opacity="0.3"/>
<path d="M34.9088 16.5683C34.0426 16.962 33.1088 17.2208 32.1413 17.3445C33.1313 16.7483 33.8963 15.8033 34.2563 14.667C33.3226 15.2295 32.2876 15.6233 31.1963 15.8483C30.3076 14.8808 29.0588 14.3183 27.6413 14.3183C24.9976 14.3183 22.8376 16.4783 22.8376 19.1445C22.8376 19.527 22.8826 19.8983 22.9613 20.247C18.9563 20.0445 15.3901 18.1208 13.0163 15.207C12.6001 15.9158 12.3638 16.7483 12.3638 17.6258C12.3638 19.302 13.2076 20.787 14.5126 21.6308C13.7138 21.6308 12.9713 21.4058 12.3188 21.0683C12.3188 21.0683 12.3188 21.0683 12.3188 21.102C12.3188 23.442 13.9838 25.3995 16.1888 25.8383C15.7838 25.9508 15.3563 26.007 14.9176 26.007C14.6138 26.007 14.3101 25.9733 14.0176 25.917C14.6251 27.8183 16.3913 29.2358 18.5176 29.2695C16.8751 30.5745 14.7938 31.3395 12.5213 31.3395C12.1388 31.3395 11.7563 31.317 11.3738 31.272C13.5113 32.6445 16.0538 33.4433 18.7763 33.4433C27.6413 33.4433 32.5126 26.0858 32.5126 19.707C32.5126 19.4933 32.5126 19.2908 32.5013 19.077C33.4463 18.402 34.2563 17.547 34.9088 16.5683Z" fill="white"/>
</g>
<defs>
<filter id="filter0_b_43_279" x="-10.7586" y="-10.5817" width="67.8" height="67.8" filterUnits="userSpaceOnUse" color-interpolation-filters="sRGB">
<feFlood flood-opacity="0" result="BackgroundImageFix"/>
<feGaussianBlur in="BackgroundImageFix" stdDeviation="5.45"/>
<feComposite in2="SourceAlpha" operator="in" result="effect1_backgroundBlur_43_279"/>
<feBlend mode="normal" in="SourceGraphic" in2="effect1_backgroundBlur_43_279" result="shape"/>
</filter>
</defs>
</svg>
